<?xml version="1.0" encoding="iso-8859-1"?>
<!-- Generator: Adobe Illustrator 19.0.0, SVG Export Plug-In . SVG Version: 6.00 Build 0)  -->
<svg version="1.1" id="Layer_1" xmlns="http://www.w3.org/2000/svg" xmlns:xlink="http://www.w3.org/1999/xlink" x="0px" y="0px"
	 viewBox="0 0 512 512" style="enable-background:new 0 0 512 512;" xml:space="preserve">
<g>
	<rect x="250.253" y="306.824" style="fill:#E6E6E6;" width="11.494" height="142.555"/>
	<rect x="250.253" y="62.637" style="fill:#E6E6E6;" width="11.494" height="142.545"/>
	
		<rect x="226.472" y="364.971" transform="matrix(-0.342 -0.9397 0.9397 -0.342 51.2096 777.2937)" style="fill:#E6E6E6;" width="142.545" height="11.494"/>
	
		<rect x="142.973" y="135.523" transform="matrix(-0.342 -0.9397 0.9397 -0.342 154.7589 390.9058)" style="fill:#E6E6E6;" width="142.535" height="11.494"/>
	
		<rect x="263.235" y="343.779" transform="matrix(-0.6428 -0.766 0.766 -0.6428 281.787 830.4448)" style="fill:#E6E6E6;" width="142.541" height="11.494"/>
	
		<rect x="106.245" y="156.723" transform="matrix(-0.6428 -0.766 0.766 -0.6428 167.1795 402.8925)" style="fill:#E6E6E6;" width="142.552" height="11.494"/>
	
		<rect x="290.476" y="311.299" transform="matrix(-0.866 -0.5 0.5 -0.866 516.4913 772.4888)" style="fill:#E6E6E6;" width="142.531" height="11.494"/>
	
		<rect x="79.001" y="189.195" transform="matrix(-0.866 -0.5 0.5 -0.866 182.928 438.8997)" style="fill:#E6E6E6;" width="142.531" height="11.494"/>
	
		<rect x="304.97" y="271.467" transform="matrix(-0.9848 -0.1737 0.1737 -0.9848 698.6035 615.5667)" style="fill:#E6E6E6;" width="142.535" height="11.494"/>
	
		<rect x="64.476" y="229.055" transform="matrix(-0.9848 -0.1737 0.1737 -0.9848 228.6494 489.6133)" style="fill:#E6E6E6;" width="142.545" height="11.494"/>
	
		<rect x="370.484" y="163.519" transform="matrix(-0.1737 -0.9848 0.9848 -0.1737 210.3644 646.0807)" style="fill:#E6E6E6;" width="11.494" height="142.535"/>
	
		<rect x="130.004" y="205.919" transform="matrix(-0.1736 -0.9848 0.9848 -0.1736 -113.6628 459.0009)" style="fill:#E6E6E6;" width="11.494" height="142.543"/>
	
		<rect x="356.012" y="123.672" transform="matrix(-0.5 -0.866 0.866 -0.5 373.8225 605.6993)" style="fill:#E6E6E6;" width="11.494" height="142.531"/>
	
		<rect x="144.529" y="245.79" transform="matrix(-0.5 -0.866 0.866 -0.5 -49.1602 605.7286)" style="fill:#E6E6E6;" width="11.494" height="142.531"/>
	
		<rect x="328.716" y="91.195" transform="matrix(-0.766 -0.6428 0.6428 -0.766 486.2332 501.9155)" style="fill:#E6E6E6;" width="11.494" height="142.541"/>
	
		<rect x="171.767" y="278.236" transform="matrix(-0.766 -0.6428 0.6428 -0.766 88.82 731.3541)" style="fill:#E6E6E6;" width="11.494" height="142.552"/>
	
		<rect x="292.005" y="70.01" transform="matrix(-0.9397 -0.342 0.342 -0.9397 529.2324 375.8675)" style="fill:#E6E6E6;" width="11.494" height="142.535"/>
	
		<rect x="208.514" y="299.455" transform="matrix(-0.9397 -0.342 0.342 -0.9397 288.8131 792.3782)" style="fill:#E6E6E6;" width="11.494" height="142.545"/>
</g>
<path style="fill:#49618C;" d="M256,0C114.615,0,0,114.615,0,256s114.615,256,256,256s256-114.615,256-256S397.385,0,256,0z
	 M256,474.47c-120.657,0-218.47-97.813-218.47-218.47S135.342,37.53,256,37.53S474.47,135.342,474.47,256S376.657,474.47,256,474.47
	z"/>
<path style="fill:#E6E6E6;" d="M256,37.53C135.342,37.53,37.53,135.342,37.53,256c0,120.659,97.813,218.47,218.47,218.47
	S474.47,376.659,474.47,256C474.47,135.342,376.657,37.53,256,37.53z M256,443.624c-103.621,0-187.624-84.002-187.624-187.624
	S152.378,68.376,256,68.376S443.624,152.378,443.624,256S359.621,443.624,256,443.624z"/>
<path style="fill:#49618C;" d="M256,199.431c-31.242,0-56.569,25.326-56.569,56.569s25.327,56.569,56.569,56.569
	s56.569-25.326,56.569-56.569S287.242,199.431,256,199.431z M256,271.792c-8.721,0-15.792-7.07-15.792-15.792
	c0-8.721,7.07-15.792,15.792-15.792s15.792,7.07,15.792,15.792C271.792,264.721,264.721,271.792,256,271.792z"/>
<g>
</g>
<g>
</g>
<g>
</g>
<g>
</g>
<g>
</g>
<g>
</g>
<g>
</g>
<g>
</g>
<g>
</g>
<g>
</g>
<g>
</g>
<g>
</g>
<g>
</g>
<g>
</g>
<g>
</g>
</svg>
